Inverse Dynamics Generalized Forces
version=1
nRows=9
nColumns=34
inDegrees=no
endheader 
time	pelvis_tilt_moment	pelvis_list_moment	pelvis_rotation_moment	pelvis_tx_force	pelvis_ty_force	pelvis_tz_force	hip_flexion_l_moment	hip_adduction_l_moment	hip_rotation_l_moment	hip_flexion_r_moment	hip_adduction_r_moment	hip_rotation_r_moment	knee_angle_l_moment	knee_angle_r_moment	ankle_angle_l_moment	ankle_angle_r_moment	subtalar_angle_l_moment	subtalar_angle_r_moment	mtp_angle_l_moment	mtp_angle_r_moment	lumbar_extension_moment	lumbar_bending_moment	lumbar_rotation_moment	arm_flex_l_moment	arm_add_l_moment	arm_rot_l_moment	arm_flex_r_moment	arm_add_r_moment	arm_rot_r_moment	elbow_flex_l_moment	elbow_flex_r_moment	pro_sup_l_moment	pro_sup_r_moment	
          7.35000000	          0.00000200	          0.00000246	         -0.00000015	          0.00000233	          0.00000535	         -0.00000144	        -14.02705075	        -59.11397266	          9.39031544	         37.74065732	         -2.17045775	         -1.50785035	       -107.69412330	          4.59301104	       -157.15176868	          4.55935538	         41.24824998	         -1.21394541	         15.89705245	         -0.49848565	        -24.98151254	         25.84420087	        -82.41294313	         87.05571698	       -145.71763175	         97.43718137	        -68.45500704	       -128.03758219	        -30.82343120	          6.15227351	        116.43549272	         23.23907904	         -2.83965039	
          7.36000000	          0.00000510	          0.00000650	          0.00000067	          0.00000239	          0.00000811	         -0.00000639	         -0.89735329	        -52.49470684	          9.12409085	         38.74370389	        -28.82527210	         -3.68326426	       -101.38768462	         -0.67217570	       -177.25332601	          8.05827851	         43.82714450	         -2.99710206	         16.46797136	         -0.73793569	         14.53245190	         93.97789185	       -124.16852009	        116.90671356	       -149.18731193	        108.40880425	       -101.06052050	       -135.12991593	        -72.12634749	         35.37737400	        124.27393530	          5.21926524	         -2.13668150	
          7.37000000	         -0.00000186	          0.00000200	         -0.00000188	         -0.00000194	          0.00000936	          0.00000209	        -16.64647099	        -43.22083951	         -0.21753405	         27.27970802	        -26.67529125	         -4.41355712	        -76.17936984	          0.50729214	       -147.55447923	          6.68803779	         33.96263346	         -0.88112070	         19.17112221	         -0.65113707	        -45.02415230	         14.78396944	        -92.62312324	         93.45101636	       -153.61429821	        108.04694649	        -76.39191468	       -142.11565122	         -2.99374914	         36.22820240	         75.29922771	          6.76407123	         -2.49223901	
          7.38000000	          0.00000243	          0.00000047	         -0.00000422	         -0.00000198	          0.00000290	         -0.00000109	         71.66081529	        -22.77925132	          5.67006258	         17.74208595	        -21.47335408	         -4.34901756	        -48.79245733	         -0.57589332	          0.05934404	          7.58533049	          1.03435950	          0.21159781	         -0.07768111	         -0.86972305	       -108.39075434	        -30.65296677	        -19.11891658	         49.77821093	       -153.31131350	        119.73201646	        -33.78211826	       -144.03985762	         34.24407113	         65.81951301	         93.88121871	          4.43366400	         -2.57749967	
          7.39000000	          0.00000243	          0.00000197	         -0.00000093	          0.00000124	          0.00000104	         -0.00000034	         68.18795283	        -12.55320095	          6.37874437	         21.75835786	        -16.16722933	         -4.62451902	        -46.91631112	          2.56350125	        -27.66513998	          6.41105795	         10.89092313	          0.26674221	          5.46600699	         -0.80137133	       -114.75791577	          0.74950716	         -9.67222563	          8.24526971	       -152.07805178	        128.49675977	         11.18348430	       -145.03107535	         60.88171815	         87.44143292	        107.99784726	          4.07038639	         -1.74154689	
          7.40000000	         -0.00000275	          0.00000220	          0.00000090	         -0.00000422	          0.00000685	          0.00000074	         72.11356105	        -17.16116445	          0.66032873	         25.89876656	         -6.44370164	         -1.58260769	        -81.54997538	          3.20610294	        -90.42039022	          5.92777538	         10.04265172	         -1.46121238	         13.47650973	         -0.66577614	       -134.78178119	         19.72716754	         -2.14331487	         43.37436277	       -150.69200001	        133.91730332	         45.36234293	       -129.38383363	         80.99975802	        103.33235379	         70.60502869	          5.18523198	          0.26575982	
          7.41000000	         -0.00000521	         -0.00000584	          0.00000040	         -0.00000456	          0.00000613	          0.00000774	         69.10351379	        -12.93043699	          1.24617536	         28.30958443	         -7.95183682	         -1.73059526	        -53.83537568	          3.27773062	        -82.82846514	          2.77999888	          5.83290156	         -3.44311904	         12.26024847	         -0.04153596	       -130.02765392	         35.04945089	         14.37653121	         69.62688733	       -116.32303772	        137.31005891	         70.65261941	        -58.60357673	         20.75860159	         93.26030935	         64.22328829	          6.76456987	          1.81756251	
          7.42000000	         -0.00000536	         -0.00001290	         -0.00000005	         -0.00000531	          0.00000625	          0.00001485	         68.03329303	         -1.92270126	         -1.54869228	         28.70792868	          1.68833487	         -1.38492688	        -49.61424529	          9.60900385	        -83.17060067	         -0.06417800	          4.32365484	         -2.73784268	         12.17519673	          0.20467054	       -114.40548310	         38.16745444	          7.19226098	         86.53069593	        -49.60776577	        139.44637820	         88.51142849	         -5.57326336	        -24.23761627	         32.61323940	         86.92432306	          4.41307048	          2.37568654	
          7.43000000	         -0.00000318	         -0.00001129	          0.00000038	         -0.00000463	          0.00000846	          0.00001302	         66.13518743	          9.75433054	          0.14207113	         30.37498490	         -4.65993185	         -1.26613695	        -40.02073503	          7.54944728	        -77.60940698	         -1.80957282	          2.44932089	         -2.08209487	         10.86188843	          0.39481379	        -81.42838496	        103.23835005	        -16.76705782	        101.68646695	          0.38334662	         66.05361030	         24.34042860	          6.66315001	        -60.22740627	         39.96955384	        103.29458717	          1.33141981	         -3.82266501	
